<svg width="28" height="28" viewBox="0 0 28 28" fill="none" xmlns="http://www.w3.org/2000/svg">
<path d="M23.3333 8.16666H4.66665C3.37798 8.16666 2.33331 9.21133 2.33331 10.5V22.1667C2.33331 23.4553 3.37798 24.5 4.66665 24.5H23.3333C24.622 24.5 25.6666 23.4553 25.6666 22.1667V10.5C25.6666 9.21133 24.622 8.16666 23.3333 8.16666Z" stroke="#222222" stroke-width="1.75" stroke-linecap="round" stroke-linejoin="round"/>
<path d="M18.6666 24.5V5.83333C18.6666 5.21449 18.4208 4.621 17.9832 4.18342C17.5456 3.74583 16.9522 3.5 16.3333 3.5H11.6666C11.0478 3.5 10.4543 3.74583 10.0167 4.18342C9.57915 4.621 9.33331 5.21449 9.33331 5.83333V24.5" stroke="#222222" stroke-width="1.75" stroke-linecap="round" stroke-linejoin="round"/>
</svg>
