<svg width="28" height="28" viewBox="0 0 28 28" fill="none" xmlns="http://www.w3.org/2000/svg">
<path d="M18.6667 9.33334C20.5232 9.33334 22.3036 10.0708 23.6164 11.3836C24.9292 12.6964 25.6667 14.4768 25.6667 16.3333V24.5H21V16.3333C21 15.7145 20.7542 15.121 20.3166 14.6834C19.879 14.2458 19.2855 14 18.6667 14C18.0478 14 17.4543 14.2458 17.0167 14.6834C16.5792 15.121 16.3333 15.7145 16.3333 16.3333V24.5H11.6667V16.3333C11.6667 14.4768 12.4042 12.6964 13.7169 11.3836C15.0297 10.0708 16.8101 9.33334 18.6667 9.33334Z" stroke="#222222" stroke-width="1.75" stroke-linecap="round" stroke-linejoin="round"/>
<path d="M7.00001 10.5H2.33334V24.5H7.00001V10.5Z" stroke="#222222" stroke-width="1.75" stroke-linecap="round" stroke-linejoin="round"/>
<path d="M4.66668 7.00001C5.95534 7.00001 7.00001 5.95534 7.00001 4.66668C7.00001 3.37801 5.95534 2.33334 4.66668 2.33334C3.37801 2.33334 2.33334 3.37801 2.33334 4.66668C2.33334 5.95534 3.37801 7.00001 4.66668 7.00001Z" stroke="#222222" stroke-width="1.75" stroke-linecap="round" stroke-linejoin="round"/>
</svg>
