<svg width="28" height="28" viewBox="0 0 28 28" fill="none" xmlns="http://www.w3.org/2000/svg">
<path d="M17.15 7.35C16.9362 7.56809 16.8165 7.86129 16.8165 8.16667C16.8165 8.47205 16.9362 8.76525 17.15 8.98333L19.0167 10.85C19.2348 11.0638 19.528 11.1835 19.8333 11.1835C20.1387 11.1835 20.4319 11.0638 20.65 10.85L25.0483 6.45167C25.635 7.74806 25.8126 9.19244 25.5575 10.5923C25.3025 11.9922 24.6268 13.2812 23.6207 14.2873C22.6145 15.2935 21.3256 15.9691 19.9257 16.2242C18.5258 16.4793 17.0814 16.3016 15.785 15.715L7.72335 23.7767C7.25922 24.2408 6.62972 24.5015 5.97335 24.5015C5.31697 24.5015 4.68748 24.2408 4.22335 23.7767C3.75922 23.3125 3.49847 22.683 3.49847 22.0267C3.49847 21.3703 3.75922 20.7408 4.22335 20.2767L12.285 12.215C11.6984 10.9186 11.5207 9.47423 11.7758 8.07433C12.0309 6.67444 12.7065 5.38552 13.7127 4.37934C14.7189 3.37317 16.0078 2.69753 17.4077 2.44247C18.8076 2.1874 20.252 2.36503 21.5483 2.95167L17.1617 7.33834L17.15 7.35Z" stroke="#222222" stroke-width="1.75" stroke-linecap="round" stroke-linejoin="round"/>
</svg>
